<svg width="64" height="64" viewBox="0 0 64 64" fill="none" xmlns="http://www.w3.org/2000/svg">
<path d="M61.3801 11.79C61.3801 9.79 60.8401 7.85 59.8101 6.17C59.1201 5.05 58.2401 4.07 57.2201 3.28C55.3501 1.81 53.0001 1 50.6101 1C48.2201 1 45.8701 1.81 44.0001 3.28C42.9501 4.09 42.0801 5.07 41.4001 6.2C40.3801 7.88 39.8301 9.82 39.8301 11.8C39.8301 17.74 44.6701 22.58 50.6101 22.58C56.5501 22.58 61.3801 17.74 61.3801 11.8V11.79ZM50.6101 20.63C45.7401 20.63 41.7701 16.66 41.7701 11.79C41.7701 10.16 42.2101 8.58 43.0601 7.2C43.6201 6.28 44.3301 5.47 45.1901 4.81C46.7501 3.59 48.6301 2.94 50.6101 2.94C52.5901 2.94 54.4901 3.6 56.0301 4.81C56.8801 5.47 57.5901 6.27 58.1601 7.19C59.0001 8.56 59.4401 10.16 59.4401 11.8C59.4401 16.68 55.4801 20.64 50.6101 20.64V20.63Z" fill="#808080"/>
<path d="M55.3202 7.06002C54.9402 6.68002 54.3302 6.68002 53.9502 7.06002L45.8802 15.14C45.5002 15.52 45.5002 16.13 45.8802 16.51C46.0702 16.7 46.3202 16.79 46.5602 16.79C46.8002 16.79 47.0602 16.7 47.2502 16.51L55.3202 8.43002C55.7002 8.05002 55.7002 7.44002 55.3202 7.06002Z" fill="#808080"/>
<path d="M53.9899 12.62C52.7099 12.62 51.6699 13.66 51.6699 14.94C51.6699 16.22 52.7099 17.26 53.9899 17.26C55.2699 17.26 56.3099 16.22 56.3099 14.94C56.3099 13.66 55.2699 12.62 53.9899 12.62ZM53.9899 15.32C53.7799 15.32 53.6099 15.15 53.6099 14.94C53.6099 14.73 53.7799 14.56 53.9899 14.56C54.1999 14.56 54.3699 14.73 54.3699 14.94C54.3699 15.15 54.1999 15.32 53.9899 15.32Z" fill="#808080"/>
<path d="M49.5301 8.63995C49.5301 7.35995 48.4901 6.31995 47.2101 6.31995C45.9301 6.31995 44.8901 7.35995 44.8901 8.63995C44.8901 9.91995 45.9301 10.9599 47.2101 10.9599C48.4901 10.9599 49.5301 9.91995 49.5301 8.63995ZM46.8301 8.63995C46.8301 8.42995 47.0001 8.25995 47.2101 8.25995C47.4201 8.25995 47.5901 8.42995 47.5901 8.63995C47.5901 8.84995 47.4201 9.01995 47.2101 9.01995C47.0001 9.01995 46.8301 8.84995 46.8301 8.63995Z" fill="#808080"/>
<path d="M55.0099 59.04C54.8299 53.95 53.2499 49.14 50.5699 45.5C48.5699 42.76 46.1099 40.86 43.3799 39.86C46.1499 38.32 48.0299 35.37 48.0299 31.99C48.0299 27.02 43.9899 22.98 39.0299 22.98C35.6299 22.98 32.5899 24.87 31.0599 27.81C29.9699 26.83 28.7499 26.03 27.4799 25.47C26.3299 24.95 25.1099 24.63 23.8599 24.49C27.5799 23.84 30.4199 20.59 30.4199 16.69C30.4199 12.32 26.8599 8.76001 22.4899 8.76001C18.1199 8.76001 14.5599 12.32 14.5599 16.69C14.5599 20.6 17.4099 23.85 21.1399 24.49C19.8999 24.63 18.6599 24.95 17.4799 25.47C12.3199 27.76 8.90988 33.24 8.64988 39.56C4.72988 41.05 2.62988 43.02 2.62988 45.27V50.38C2.62988 55.25 12.3399 57.97 21.3799 58.44C21.9399 58.46 22.5199 58.48 23.0899 58.49C23.0799 58.68 23.0699 58.86 23.0599 59.06C23.0399 59.45 23.2499 59.81 23.5999 59.98C27.5199 61.92 33.1399 63.03 39.0299 63.03C44.9199 63.03 50.5699 61.91 54.4799 59.97C54.8199 59.8 55.0299 59.45 55.0199 59.07L55.0099 59.04ZM39.0199 24.91C42.9199 24.91 46.0899 28.08 46.0899 31.99C46.0899 35.9 42.9199 39.06 38.9399 39.06C38.6699 39.06 38.4099 39.04 38.1499 39.01C38.0699 39 37.9899 38.98 37.9099 38.97C37.7299 38.94 37.5499 38.91 37.3799 38.87C37.2799 38.85 37.1899 38.81 37.0899 38.79C36.9299 38.74 36.7699 38.7 36.6199 38.64C36.5199 38.6 36.4199 38.56 36.3199 38.51C36.1899 38.46 36.0699 38.4 35.9399 38.34C35.8499 38.27 35.7399 38.2 35.6299 38.17C35.6099 38.17 35.5899 38.16 35.5699 38.15C35.4399 38.07 35.3099 37.99 35.1799 37.9C35.0499 37.82 34.9199 37.74 34.8099 37.65C34.6699 37.55 34.5499 37.43 34.4199 37.32C34.3099 37.23 34.1999 37.14 34.0999 37.04C33.9799 36.92 33.8699 36.79 33.7499 36.66C33.6599 36.56 33.5599 36.46 33.4799 36.35C33.3699 36.21 33.2799 36.06 33.1799 35.92C33.0999 35.81 33.0199 35.7 32.9499 35.58C32.8599 35.43 32.7899 35.26 32.7099 35.1C32.6499 34.98 32.5899 34.87 32.5299 34.75C32.4599 34.58 32.3999 34.4 32.3499 34.23C32.3099 34.11 32.2599 33.99 32.2299 33.87C32.1799 33.67 32.1399 33.47 32.1099 33.27C32.0899 33.16 32.0599 33.06 32.0499 32.95C32.0099 32.64 31.9899 32.32 31.9899 32C31.9899 31.24 32.1099 30.5 32.3399 29.81C33.2899 26.89 35.9899 24.92 39.0599 24.92L39.0199 24.91ZM30.2899 29.8C30.2099 30.11 30.1499 30.43 30.1099 30.75C30.0999 30.83 30.0899 30.9 30.0799 30.98C30.0399 31.31 30.0199 31.65 30.0199 31.99C30.0199 32.36 30.0499 32.72 30.0899 33.08C30.0899 33.16 30.1099 33.23 30.1199 33.31C30.1699 33.66 30.2399 34 30.3299 34.34C30.3499 34.4 30.3699 34.46 30.3799 34.52C30.4699 34.83 30.5799 35.13 30.6999 35.43C30.7199 35.48 30.7399 35.53 30.7599 35.58C30.8999 35.9 31.0599 36.21 31.2299 36.51C31.2699 36.58 31.3099 36.64 31.3499 36.71C31.5299 37 31.7199 37.29 31.9299 37.56C31.8099 37.54 31.6799 37.54 31.5599 37.52C31.1599 37.47 30.7599 37.43 30.3499 37.4C29.9999 37.37 29.6499 37.33 29.2999 37.31C28.8899 37.28 28.4799 37.26 28.0699 37.23C27.8199 37.22 27.5799 37.19 27.3299 37.18L25.6299 29.32L26.0799 28.84L27.2899 27.54C28.3699 28.1 29.3899 28.86 30.2899 29.78V29.82V29.8ZM23.7999 29.98L24.5199 33.29L25.3399 37.1C25.2399 37.1 25.1299 37.1 25.0199 37.1C23.3099 37.08 21.5499 37.15 19.8299 37.28C19.7299 37.28 19.6399 37.28 19.5399 37.3L21.1299 29.97H23.7999V29.98ZM16.4799 16.67C16.4799 13.37 19.1699 10.68 22.4699 10.68C25.7699 10.68 28.4599 13.37 28.4599 16.67C28.4599 19.97 25.7699 22.66 22.4699 22.66C19.1699 22.66 16.4799 19.97 16.4799 16.67ZM25.3699 26.74L24.1599 28.04H20.7699L19.5599 26.74C21.4699 26.18 23.5099 26.19 25.3699 26.74ZM17.6299 27.52L18.7299 28.7L19.2899 29.3L17.5099 37.51C16.9799 37.57 16.4599 37.65 15.9499 37.73C15.8799 37.74 15.7999 37.75 15.7299 37.76C15.0099 37.87 14.3099 38 13.6299 38.14C13.4399 38.18 13.2599 38.22 13.0699 38.26C12.5699 38.37 12.0799 38.48 11.6099 38.61C11.4099 38.66 11.2099 38.71 11.0199 38.77C10.8899 38.81 10.7499 38.84 10.6199 38.88C11.0699 33.93 13.7599 29.55 17.6499 27.53L17.6299 27.52ZM9.88988 41.13C10.4899 40.92 11.1199 40.73 11.7899 40.55C13.7799 40.01 16.0399 39.61 18.4199 39.35C20.7899 39.1 23.2799 39 25.6499 39.05C25.9399 39.05 26.2299 39.05 26.5199 39.07C27.2599 39.09 27.9799 39.13 28.6999 39.17C28.9399 39.19 29.1799 39.21 29.4099 39.23C29.8799 39.27 30.3399 39.3 30.7999 39.35C31.0699 39.38 31.3399 39.42 31.5999 39.45C32.0099 39.5 32.4199 39.55 32.8199 39.61C33.0899 39.65 33.3499 39.7 33.6099 39.74C33.8999 39.79 34.1899 39.84 34.4799 39.89C34.3299 39.95 34.1899 40.02 34.0399 40.08C33.8699 40.15 33.6899 40.23 33.5199 40.31C33.2599 40.43 32.9999 40.57 32.7499 40.72C32.5899 40.81 32.4399 40.89 32.2799 40.98C31.9999 41.15 31.7299 41.34 31.4599 41.53C31.3299 41.62 31.2099 41.7 31.0799 41.79C30.6899 42.08 30.2999 42.4 29.9299 42.74C29.0399 43.53 28.2099 44.46 27.4899 45.47C27.1499 45.93 26.8299 46.41 26.5299 46.9C26.4299 47.07 26.3299 47.25 26.2299 47.42C26.0399 47.75 25.8499 48.08 25.6799 48.43C25.5699 48.65 25.4699 48.87 25.3699 49.1C25.2199 49.42 25.0799 49.73 24.9399 50.06C24.8399 50.31 24.7499 50.56 24.6599 50.81C24.5799 51.02 24.4999 51.22 24.4199 51.43C23.8099 51.43 23.2099 51.41 22.6199 51.39C22.3699 51.39 22.1099 51.39 21.8599 51.37C20.9899 51.33 20.1399 51.27 19.3199 51.2C17.4999 51.04 15.7499 50.79 14.1199 50.47C14.0799 50.45 14.0299 50.44 13.9899 50.43C10.1499 49.65 7.16988 48.46 5.60988 47.07C4.90988 46.44 4.55988 45.83 4.55988 45.24C4.55988 43.83 6.55988 42.29 9.89988 41.12L9.88988 41.13ZM4.54988 50.36V48.73C4.63988 48.8 4.74988 48.87 4.83988 48.95C4.94988 49.03 5.04988 49.11 5.16988 49.2C5.31988 49.31 5.48988 49.41 5.64988 49.51C5.77988 49.59 5.89988 49.67 6.02988 49.75C6.20988 49.85 6.38988 49.95 6.57988 50.04C6.71988 50.11 6.85988 50.19 7.01988 50.26C7.21988 50.36 7.42988 50.45 7.63988 50.54C7.79988 50.61 7.94988 50.68 8.11988 50.75C8.33988 50.84 8.57988 50.93 8.80988 51.01C8.97988 51.07 9.13988 51.14 9.31988 51.2C9.56988 51.29 9.82988 51.37 10.0899 51.45C10.2699 51.51 10.4299 51.56 10.6099 51.62C10.8999 51.71 11.2099 51.79 11.5199 51.87C11.6799 51.91 11.8299 51.96 11.9999 52C12.4799 52.12 12.9699 52.23 13.4699 52.33C13.5099 52.35 13.5599 52.36 13.6099 52.37C15.3399 52.72 17.1999 52.99 19.1399 53.16C19.9499 53.23 20.7899 53.29 21.6399 53.33C21.9099 53.34 22.1899 53.35 22.4699 53.36C22.9299 53.38 23.3799 53.4 23.8499 53.4V53.44C23.7299 53.93 23.6199 54.43 23.5299 54.93C23.4799 55.16 23.4399 55.4 23.3999 55.64C23.3999 55.7 23.3799 55.76 23.3699 55.82C23.3399 56.03 23.3099 56.25 23.2799 56.47C23.2799 56.5 23.2799 56.53 23.2699 56.56C22.6599 56.55 22.0599 56.52 21.4699 56.5C11.0299 55.96 4.56988 52.9 4.56988 50.38L4.54988 50.36ZM39.0199 61.07C33.6999 61.07 28.6499 60.14 25.0199 58.49C25.0399 58.2 25.0599 57.91 25.0899 57.62C25.1799 56.71 25.2799 55.97 25.4199 55.28C25.5799 54.38 25.7999 53.51 26.0599 52.69C26.7599 50.42 27.7699 48.39 29.0699 46.63C29.7199 45.72 30.4499 44.91 31.2399 44.2C32.6099 42.95 34.0999 42.06 35.6899 41.54C36.7499 41.17 37.8399 40.99 39.0299 40.99C42.7999 40.99 46.3399 43 49.0099 46.65C51.3499 49.83 52.7799 54.01 53.0499 58.48C49.4299 60.13 44.3699 61.07 39.0299 61.07H39.0199Z" fill="#808080"/>
</svg>
